<svg width="90" height="90" xmlns="http://www.w3.org/2000/svg">

 <g>
  <title>background</title>
  <rect fill="none" id="canvas_background" height="92" width="92" y="-1" x="-1"/>
 </g>
 <g>
  <title>Layer 1</title>
  <path id="svg_1" d="m31.8,51.3"/>
  <path id="svg_2" d="m36.7,46"/>
  <path id="svg_3" d="m32.7,51.3c0.8,-1.1 3.8,-0.8 4.4,-1.6c0.8,-0.8 0,-3.1 0,-3.1l3.8,2.3c0,0 2.5,-0.8 4.8,0c2.4,0.8 2.5,1.4 2.5,1.4s1,2.7 -0.5,4.3c-1.5,1.7 -2,1.6 -4.4,1.9c-2.5,0.2 -6,-0.9 -6,-0.9l-3.8,-2.1c-0.1,0.1 -1.6,-1.1 -0.8,-2.2z"/>
  <path id="svg_4" d="m51.5,48.2c0.5,-1 2,-3.4 2,-3.4s1.9,-3.8 4.2,-4c2.4,-0.2 2.4,1.5 2.4,1.5s0.6,3.3 0,5.4c-0.6,2.3 -1.4,5.5 -3.2,6.5c-1.1,0.6 -3.3,2.2 -4.8,1.1c-0.9,-0.4 -1.1,-6 -0.6,-7.1z"/>
  <path id="svg_5" d="m53.8,39.8c0,0 0.5,-1.7 2.4,-2.5c1.8,-0.8 3.3,0.1 3.3,0.1s-1,-3 -2.8,-4.3c-1.8,-1.4 -5.3,-5.1 -6.3,-4.6c-1.4,0.6 -0.4,0.2 -2.3,2.5c-1.9,2.3 -0.4,1 2.4,2.6c2.6,1.3 3.3,6.2 3.3,6.2z"/>
  <path id="svg_6" d="m48.8,47.4c-1.9,0.5 -4.7,0.4 -5,-1.4c-0.3,-1.8 0.1,-0.5 1.4,-4.1c1.3,-3.5 0,-7.9 0,-7.9s5,2.3 6.2,3.5c1.2,1.2 1.1,1.9 1,4.1c0,2 -1.7,5.3 -3.6,5.8z"/>
  <path id="svg_7" d="m34.3,31.9c-1.4,-0.2 -0.8,-1.1 -0.8,-1.1l2.5,-4.1c0,0 4.7,-1 6.4,0.1c1.8,1.2 6,1.2 6,1.2s-3.5,4.4 -5.2,5.2c-1.8,0.8 -5.4,-2.2 -5.4,-2.2s-2,1.1 -3.5,0.9z"/>
  <path id="svg_8" d="m38,34.1c-1.6,-1 -5.5,0 -5.5,0l-2.4,-0.8c0,0 -0.9,2.4 0,4.7c0.9,2.6 3.5,5.1 4.2,4.7c1.3,-0.7 5.3,-7.7 3.7,-8.6z"/>
  <path id="svg_9" d="m38.6,41c0,0 -0.1,-2.5 1.3,-3.5c1.4,-1 4.1,-0.9 4.1,-0.9s0.7,1.7 -0.5,2.6c-1.2,0.9 -2.3,0 -2.3,0l-2.6,1.8z"/>
  <path id="svg_10" d="m36.7,43.4l2.8,-1.6l1.8,-0.3c0,0 2.1,-0.7 2.1,0.3c0,1.1 -1.1,2.8 -0.8,4.2c0.3,1.4 -2.6,-0.8 -2.6,-0.8l-3.3,-1.8z"/>
  <path id="svg_11" d="m49.5,22.4c0.7,-4.2 -1.4,-4.2 -1.4,-4.2l5.9,0l2.2,0l1.8,1.6c0,0 4.3,4.2 4.5,7.3s-1.5,8.4 -1.5,8.4s-4.6,-6.8 -7.1,-8c-0.7,-0.4 -1.4,-0.6 -1.9,-0.8c-1.1,-0.4 -3.2,-0.2 -2.5,-4.3z"/>
  <path id="svg_12" d="m61.1,38.1c0,0 3.1,-2 3.4,-4.4c0.3,-2.4 0.4,-5.7 0.4,-5.7s7.9,4.5 7.1,12.4c-0.7,7.8 -10.4,9.9 -10.4,9.9s2.5,-2 2,-6.6c-0.7,-4.7 -2.5,-5.6 -2.5,-5.6z"/>
  <path id="svg_13" d="m59.9,15c0.5,-3 3,-2.7 3.5,-2.7s4.8,1.6 4.8,1.6l1.2,-1.6c0,0 3.9,9.2 4.1,11.3c0.6,6.5 -1.5,7.7 -1.5,7.7s-3.9,-4.9 -6.3,-6.9c-2.7,-1.9 -6.2,-6.4 -5.8,-9.4z"/>
  <path id="svg_14" d="m46.7,26c0,0 1.2,-4.2 0,-6c-1.2,-1.8 -13.3,-6.1 -13.3,-6.1l-0.4,3.1c0,0 -1.7,2.6 -1.5,4.1c0.2,1.4 2,5 2,5s0.9,-2.1 2.3,-2.4c1.5,-0.3 3.3,1.1 3.3,1.1s0.6,-0.9 2.6,-1.5c2,-0.6 5,2.7 5,2.7z"/>
  <path id="svg_15" d="m32.1,10.9c0,0 1.9,-1.7 5.3,-4.3c3.5,-2.8 3.8,-1.7 3.8,-1.7s3.7,3.9 4.8,4.6c1.3,0.8 7.1,3.2 7.1,3.2s4.7,2 2.8,2.6c-2.1,0.6 -9.8,1.5 -9.8,1.5s-3.4,-2.6 -6.6,-4c-3.3,-1.5 -7.4,-1.9 -7.4,-1.9z"/>
  <path id="svg_16" d="m29.7,41.4c-1,-1.2 -2.9,-3.3 -2.9,-3.3l-4.7,-0.6c0,0 -4,1.3 -4.1,3s10.2,9.2 13.2,9.1c3.2,-0.1 4.5,-2.6 4.5,-2.6l-4,-1.9c0.4,-0.1 -0.9,-2.5 -2,-3.7z"/>
  <path id="svg_17" d="m20.2,35.8c0,0 -1.3,-1.4 -1.9,-3.2c-0.3,-0.9 -1.4,-4 -1.3,-6.5c0.1,-2.3 0,-3 0,-3l5.6,-0.9c0,0 2.6,-0.6 4.5,0c1.9,0.6 3,2 3,2l1.5,3.5c0,0 -1.6,2.2 -2.6,3.8c-1,1.6 -0.8,4.2 -0.8,4.2s-1.4,-0.2 -3.5,-0.5c-2,-0.2 -4.5,0.6 -4.5,0.6z"/>
  <path id="svg_18" d="m15.8,30.6c0,0 -3.2,-2.6 -4.1,-4.6c-0.9,-2.1 -1.1,-1.5 -1.1,-3.7s2.8,-5.3 2.8,-5.3l2.1,-7.2l8.8,0.2c0,0 10.7,-2.6 3.3,9c-1.7,1.2 -12.5,2.4 -12.5,2.4l-0.3,4.4l1,4.8z"/>
  <path id="svg_19" d="m9.8,31.9c0,0 -1.4,-3.1 -4,-2.9c-2.6,0.2 -3.8,1.5 -3.8,1.5s-0.3,8.5 0.5,11.5c1.5,5.7 2.9,9.4 6.8,9.7c4.1,0.3 4.1,-1.9 4.1,-1.9l1.4,-2.9c0,0 3.3,-0.1 3.5,-1.3c0.1,-1.2 0.1,-0.6 -1.3,-2.6c-1.4,-2 -3.3,-3.1 -3.3,-3.1l3.7,-2.9l-2.7,-3.1c0,0 0.3,-0.3 -1,-1.3c-1.3,-0.8 -3.9,-0.7 -3.9,-0.7z"/>
  <path id="svg_20" d="m26.5,49.7c-2.7,-0.4 -3.7,-1.7 -3.7,-1.7l-4.9,0.4l-2.9,4.5c0,0 1.9,0.1 5.9,1.7s10.5,2.9 10.5,2.9l2.5,-0.9c0,0 -1.9,-0.3 -2.8,-2.2c-0.9,-1.9 -1.3,-2.7 -1.3,-2.7s-0.7,-1.6 -3.3,-2z"/>
  <path id="svg_21" d="m50.6,57.9l1,3.6c0,0 0.7,2.9 1.9,4.4c1.2,1.6 2,1.5 2,1.5s3.5,0.2 6.1,-1.8c2.7,-2 2.6,-3.7 4.1,-4.8c1.4,-1.2 2.3,-3.3 2.3,-3.3s0.9,-5.5 -1.5,-5.6c-2.3,-0.2 -3.5,0.3 -4.6,1.1c-1.2,0.8 -1.6,2.6 -3.5,4.1c-1.9,1.5 -4.1,1.7 -4.1,1.7l-3.7,-0.9z"/>
  <path id="svg_22" d="m70.6,48.8c-0.1,-1.2 0.9,-1.5 1.7,-3.1c0.9,-1.5 1,-4.1 1,-4.1s6,-4.8 7.3,-5.2c1.3,-0.4 2.4,6.4 2.4,6.4s-4.9,13.5 -7.3,14.2c-2.4,0.7 -4.4,0 -4.4,0l0.9,-2.8l0.2,-3.3c-0.2,0.1 -1.8,-0.9 -1.8,-2.1z"/>
  <path id="svg_23" d="m73,16.2c0,0 2.4,1.6 5,0s1.7,-0.8 1.7,-0.8s3.6,3.3 3.2,9.3s0,7.8 0,7.8s-6.8,5.7 -8.8,3.9c-2,-1.9 -0.8,-3 -0.8,-3s2,-2.9 2.6,-4.7c0.6,-1.9 0.3,-4 0.3,-4l-3.2,-8.5z"/>
  <path id="svg_24" d="m14.2,55.4c-2.5,-0.3 -3,3.8 -1.6,5.7c1.4,1.9 6.4,3.3 11.4,4.6c6.8,1.7 12.4,-5.9 12.1,-6.8s-3,0.5 -5.9,0.6c-3.2,0.1 -13.6,-3.7 -16,-4.1z"/>
  <path id="svg_25" d="m38,58.2c0,0 0.1,0.9 -1.4,3.7c-1.5,2.8 -3,3.4 -3,3.4s3,2.9 6.6,3.6c0.8,0.2 4.5,-0.7 4.5,-0.7s2.8,-0.9 4.2,-2.7c1.4,-1.9 -1,-8 -1,-8s-1.6,1.5 -4.1,1.7c-2.6,0.1 -5.8,-1 -5.8,-1z"/>
  <path id="svg_26" d="m70,59.4c-0.9,-0.1 -3.4,2.6 -2.9,3.9c0.4,1.3 6.5,2.3 9.7,2.4c3.2,0.1 7.8,-6 7.8,-6s-0.9,-2.7 0.1,-5.4c1,-2.7 4,-7.2 4,-7.2s0.6,-1.8 0.1,-3.8c-0.6,-2 -3.8,-1.3 -3.8,-1.3s-4.6,15.4 -8.7,17.4c-2.9,1.3 -3.5,0.1 -6.3,0z"/>
  <path id="svg_27" d="m54.6,78.4c2.5,-0.1 9.6,0.5 14.2,-2.7c2.6,-1.7 3.9,-3.9 3.9,-3.9l1,-4.5c0,0 -5.9,-0.1 -7.2,-1.9c-0.8,-1.1 -3.7,4.9 -11.1,4.8c-2.1,0 -2.4,-3.7 -4.7,-2.4c-2.5,1.3 -2.4,2.1 -2.4,2.1s3.9,8.6 6.3,8.5z"/>
  <path id="svg_28" d="m31.8,68.3c0,0 1.8,2 6.2,2.7s7.1,0 7.1,0s2.4,1.5 3,3.6c0.6,2.1 -0.2,2.6 -1.4,3.9c-1.2,1.2 -9.6,4.2 -9.6,4.2l-7,-3.2c0,0 -5.8,-2.8 -6.3,-4.4c-0.4,-1.7 5.3,-3.5 5.3,-3.5l2.7,-3.3z"/>
  <path id="svg_29" d="m10,54.6c0,0 -2.4,-1.3 -3.7,-1.2c-8.2,0.3 -4.3,13.7 -4.3,13.7s10.5,5.5 14.1,6.5c3.7,1 12.4,-4.7 12.4,-4.7l-12.5,-2.7c0,0 -4.6,-2.1 -5.8,-4.3c-1.1,-2.2 -0.2,-7.3 -0.2,-7.3z"/>
 </g>
</svg>